<?xml version="1.0" encoding="utf-8"?><svg viewBox="0 0 448 512" xmlns="http://www.w3.org/2000/svg" xmlns:xlink="http://www.w3.org/1999/xlink"><style>:root>svg{display:none}:root>svg:target{display:block}</style><svg viewBox="0 0 22 9" id="arrow" xmlns="http://www.w3.org/2000/svg"><defs><style>.acls-1{fill:#fff;fill-rule:evenodd}</style></defs><path class="acls-1" d="M.3 5.472h16.948l-.1 2.857a.292.292 0 000 .41l.172.172a.28.28 0 00.2.086.285.285 0 00.2-.084l4.193-4.211A.292.292 0 0022 4.5a.283.283 0 00-.084-.2L17.723.087a.289.289 0 00-.407 0l-.172.173a.287.287 0 00-.084.2.278.278 0 00.084.2l.113 2.865H.292A.3.3 0 000 3.82v1.37a.292.292 0 00.3.282z"/></svg><svg viewBox="0 0 5.188 9.531" id="arrow-filter" xmlns="http://www.w3.org/2000/svg"><defs><style>.bcls-1{fill:#243f4d;fill-rule:evenodd}</style></defs><path class="bcls-1" d="M.472 9.538a.463.463 0 00.331-.14l4.221-4.265.013-.013a.522.522 0 00.095-.144.541.541 0 00.045-.217.528.528 0 00-.044-.211.525.525 0 00-.1-.147.043.043 0 00-.011-.012L.801.124a.461.461 0 00-.68.019.539.539 0 00.018.724l3.857 3.9-3.857 3.9a.539.539 0 00-.018.724.467.467 0 00.351.147z"/></svg><svg viewBox="0 0 7 12" id="arrow-right" xmlns="http://www.w3.org/2000/svg"><path fill-rule="evenodd" d="M1.333 11.687a.557.557 0 01-.411-.183.602.602 0 01.022-.831l4.547-4.475L.944 1.724A.602.602 0 01.922.893.552.552 0 011.723.87L6.7 5.768l.014.014a.545.545 0 01.113.169h.001a.611.611 0 01.052.244v.003a.609.609 0 01-.053.249l-.001.001v.002a.594.594 0 01-.111.164l-.015.014-4.977 4.899a.551.551 0 01-.39.16z"/></svg><svg aria-hidden="true" data-prefix="fas" data-icon="calendar-week" class="dsvg-inline--fa dfa-calendar-week dfa-w-14" viewBox="0 0 448 512" id="calendar" xmlns="http://www.w3.org/2000/svg"><path d="M0 464c0 26.5 21.5 48 48 48h352c26.5 0 48-21.5 48-48V192H0v272zm64-192c0-8.8 7.2-16 16-16h288c8.8 0 16 7.2 16 16v64c0 8.8-7.2 16-16 16H80c-8.8 0-16-7.2-16-16v-64zM400 64h-48V16c0-8.8-7.2-16-16-16h-32c-8.8 0-16 7.2-16 16v48H160V16c0-8.8-7.2-16-16-16h-32c-8.8 0-16 7.2-16 16v48H48C21.5 64 0 85.5 0 112v48h448v-48c0-26.5-21.5-48-48-48z"/></svg><svg viewBox="0 0 18.94 16.969" id="corb" xmlns="http://www.w3.org/2000/svg"><path fill-rule="evenodd" d="M5.53 16.978a2.074 2.074 0 110-4.147 2.056 2.056 0 011.46.6 2.03 2.03 0 01.61 1.466 2.071 2.071 0 01-2.07 2.081zm0-2.963a.889.889 0 10.34 1.71.9.9 0 00.55-.824.92.92 0 00-.26-.629.9.9 0 00-.63-.257zm8.39 2.963a2.045 2.045 0 01-1.46-.607 2.068 2.068 0 011.46-3.54 1.953 1.953 0 011.47.6 2.085 2.085 0 01-.67 3.383 2.093 2.093 0 01-.8.164zm0-2.963a.978.978 0 00-.82.548.887.887 0 001.16 1.161.891.891 0 00.29-1.452.9.9 0 00-.63-.257zm-11.27.164a.562.562 0 01-.25-.056.59.59 0 01-.29-.787 3.686 3.686 0 013.05-2.151L4.11 5.794a.591.591 0 111.16-.228l1.09 5.578h9.43l1.8-6.771H4.29A4.346 4.346 0 01.01.68.587.587 0 01.5.007a.6.6 0 01.68.5 3.159 3.159 0 003.11 2.682h14.07a.582.582 0 01.47.232.594.594 0 01.11.513l-2.13 7.956a.59.59 0 01-.57.44H5.88a.03.03 0 00-.02 0 2.66 2.66 0 00-2.68 1.51.586.586 0 01-.53.338z"/></svg><svg viewBox="0 0 49.13 43.84" id="credit-card" xmlns="http://www.w3.org/2000/svg"><defs><style>.fcls-1{fill:#a3bbc8;fill-rule:evenodd}</style></defs><path id="fcredit-card" class="fcls-1" d="M1444.43 1042.32a.83.83 0 00-.84.83v8.27a2.164 2.164 0 01-2.16 2.16h-39.34a2.164 2.164 0 01-2.16-2.16v-11.92h27.29a.84.84 0 100-1.68h-27.29v-5.47h9.87a.828.828 0 00.83-.83.837.837 0 00-.83-.84h-9.87v-2.88a2.166 2.166 0 012.16-2.17h25.13a.835.835 0 100-1.67h-25.13a3.839 3.839 0 00-3.83 3.84v23.62a3.837 3.837 0 003.83 3.83h39.34a3.837 3.837 0 003.83-3.83v-8.27a.828.828 0 00-.83-.83zm-17.21-11.64H1413a.837.837 0 00-.83.84.828.828 0 00.83.83h14.22a.837.837 0 00.84-.83.845.845 0 00-.84-.84zm-9.24 11.56h-14.27a.835.835 0 000 1.67h14.27a.835.835 0 100-1.67zm-6.08 3.99h-8.19a.835.835 0 000 1.67h8.19a.835.835 0 000-1.67zm34.63-13.61a.832.832 0 00.84-.84v-4.77a3.038 3.038 0 00-2.39-2.97v-6.02a6.6 6.6 0 10-13.19 0v6.02a3.053 3.053 0 00-2.4 2.97v10.75a3.045 3.045 0 003.04 3.04h11.9a3.039 3.039 0 003.04-3.04v-3.19a.835.835 0 00-1.67 0v3.19a1.379 1.379 0 01-1.37 1.37h-11.9a1.379 1.379 0 01-1.37-1.37v-10.75a1.379 1.379 0 011.37-1.37h11.9a1.379 1.379 0 011.37 1.37v4.77a.83.83 0 00.83.84zm-3.23-8.65h-9.84v-5.95a4.92 4.92 0 119.84 0v5.95zm-4.92 4.32a3.092 3.092 0 00-.83 6.07v2.04a.83.83 0 00.83.84.839.839 0 00.84-.84v-2.04a3.094 3.094 0 00-.84-6.07zm0 4.52a1.425 1.425 0 111.42-1.43 1.428 1.428 0 01-1.42 1.43z" transform="translate(-1398.25 -1011.41)"/></svg><svg aria-hidden="true" data-prefix="far" data-icon="user" class="gsvg-inline--fa gfa-user gfa-w-14" viewBox="0 0 448 512" id="date" xmlns="http://www.w3.org/2000/svg"><path d="M313.6 304c-28.7 0-42.5 16-89.6 16-47.1 0-60.8-16-89.6-16C60.2 304 0 364.2 0 438.4V464c0 26.5 21.5 48 48 48h352c26.5 0 48-21.5 48-48v-25.6c0-74.2-60.2-134.4-134.4-134.4zM400 464H48v-25.6c0-47.6 38.8-86.4 86.4-86.4 14.6 0 38.3 16 89.6 16 51.7 0 74.9-16 89.6-16 47.6 0 86.4 38.8 86.4 86.4V464zM224 288c79.5 0 144-64.5 144-144S303.5 0 224 0 80 64.5 80 144s64.5 144 144 144zm0-240c52.9 0 96 43.1 96 96s-43.1 96-96 96-96-43.1-96-96 43.1-96 96-96z"/></svg><svg viewBox="0 0 49.126 29.35" id="delivery-truck" xmlns="http://www.w3.org/2000/svg"><defs><style>.hcls-1{fill:#a3bbc8;fill-rule:evenodd}</style></defs><path id="hdelivery-truck" class="hcls-1" d="M812.816 1025.33h-6.126a.79.79 0 000 1.58h6.126a.79.79 0 000-1.58zm.524 11.01h-5.6a.785.785 0 100 1.57h5.6a.785.785 0 100-1.57zm-2.094-4.72H804.6a.79.79 0 000 1.58h6.65a.79.79 0 00-.004-1.58zm0 11.01h-.646a.785.785 0 100 1.57h.644a.785.785 0 10.002-1.57zm-3.263 0H804.6a.785.785 0 100 1.57h3.387a.785.785 0 10-.004-1.57zm36.86-19.86h-6.657v-1.42a.784.784 0 00-.786-.78h-12.175a.785.785 0 100 1.57h11.39v17.22a.786.786 0 101.571 0v-15.02h6.657a6.519 6.519 0 016.509 6.52v13.29h-2a4.974 4.974 0 00-9.824 0h-1.345v-1.12a.786.786 0 10-1.571 0v1.12h-8.336a4.974 4.974 0 00-9.823 0h-1.634v-22.01h5.261a.785.785 0 100-1.57h-6.046a.783.783 0 00-.785.78v23.59a.791.791 0 00.785.79h2.419a4.974 4.974 0 009.823 0h11.252a4.974 4.974 0 009.824 0h2.782a.791.791 0 00.785-.79v-14.08a8.094 8.094 0 00-8.076-8.09zm-21.475 25.58a3.41 3.41 0 113.4-3.41 3.411 3.411 0 01-3.4 3.41zm21.075 0a3.411 3.411 0 01-3.4-3.41 3.4 3.4 0 113.4 3.41zm.4-22.44h-4.3a.791.791 0 00-.785.79v7.39a.791.791 0 00.785.79H849a.792.792 0 00.786-.79v-3.23a4.949 4.949 0 00-4.943-4.95zm3.367 7.39h-6.882v-5.81h3.515a3.371 3.371 0 013.367 3.37v2.44zm-24.842 9.61a2.03 2.03 0 102.024 2.03 2.029 2.029 0 00-2.024-2.03zm0 2.49a.46.46 0 01-.455-.46.455.455 0 01.909 0 .46.46 0 01-.454.46zm21.075-2.49a2.03 2.03 0 102.025 2.03 2.03 2.03 0 00-2.025-2.03zm0 2.49a.46.46 0 01-.454-.46.454.454 0 01.908 0 .46.46 0 01-.454.46zm4.552-8.37a.783.783 0 00-.785.78v1.99a.786.786 0 101.571 0v-1.99a.784.784 0 00-.781-.78z" transform="translate(-803.812 -1020.56)"/></svg><svg xmlns:svgjs="http://svgjs.com/svgjs" viewBox="0 0.742 19 16.515" id="heart" xmlns="http://www.w3.org/2000/svg"><svg width="19" height="18" viewBox="1.983 1.721 17.859 15.523"><path paint-order="stroke fill markers" fill-rule="evenodd" d="M10.913 17.244a.707.707 0 01-.28-.056c-.353-.15-8.65-3.75-8.65-10.76.091-2.65 2.207-4.707 4.818-4.707 1.743 0 3.266.918 4.112 2.31a4.796 4.796 0 014.112-2.31c2.61 0 4.725 2.058 4.817 4.684 0 7.034-8.297 10.634-8.65 10.783a.71.71 0 01-.28.056zM6.8 3.106c-1.847 0-3.343 1.47-3.408 3.346 0 5.408 6.125 8.663 7.52 9.335 1.395-.672 7.52-3.93 7.52-9.358-.065-1.853-1.563-3.323-3.408-3.323s-3.342 1.47-3.408 3.346a.7.7 0 01-.704.67.7.7 0 01-.705-.67C10.143 4.576 8.646 3.106 6.8 3.106z"/></svg></svg><svg xmlns:svgjs="http://svgjs.com/svgjs" viewBox="0 0.5 21 21" id="menu" xmlns="http://www.w3.org/2000/svg"><svg width="21" height="22" viewBox="2 1.589 20.029 20.029"><path paint-order="stroke fill markers" fill-rule="evenodd" d="M4.146 5.88A2.144 2.144 0 012 3.736c0-1.187.96-2.146 2.146-2.146 1.187 0 2.146.959 2.146 2.146 0 1.186-.96 2.146-2.146 2.146zm0 7.87A2.145 2.145 0 012 11.603c0-1.186.96-2.145 2.146-2.145a2.145 2.145 0 110 4.292zm0 7.868A2.144 2.144 0 012 19.472c0-1.187.96-2.146 2.146-2.146 1.187 0 2.146.96 2.146 2.146 0 1.187-.96 2.146-2.146 2.146zM12.014 5.88a2.144 2.144 0 01-2.146-2.146c0-1.187.96-2.146 2.146-2.146 1.187 0 2.146.959 2.146 2.146a2.144 2.144 0 01-2.146 2.146zm0 7.869a2.145 2.145 0 01-2.146-2.147c0-1.186.96-2.145 2.146-2.145 1.187 0 2.146.959 2.146 2.145a2.145 2.145 0 01-2.146 2.147zm0 7.868a2.144 2.144 0 01-2.146-2.146c0-1.187.96-2.146 2.146-2.146 1.187 0 2.146.96 2.146 2.146a2.144 2.144 0 01-2.146 2.146zM19.883 5.88a2.144 2.144 0 01-2.146-2.146c0-1.187.96-2.146 2.146-2.146 1.187 0 2.146.959 2.146 2.146 0 1.186-.96 2.146-2.146 2.146zm0 7.869a2.145 2.145 0 01-2.146-2.147c0-1.186.96-2.145 2.146-2.145a2.145 2.145 0 110 4.292zm0 7.868a2.144 2.144 0 01-2.146-2.146c0-1.187.96-2.146 2.146-2.146 1.187 0 2.146.96 2.146 2.146 0 1.187-.96 2.146-2.146 2.146z"/></svg></svg><svg viewBox="0 0 22 25" id="play" xmlns="http://www.w3.org/2000/svg"><path fill-rule="evenodd" d="M20.684 14.74L4.64 24.536a3.236 3.236 0 01-3.062.144c-.972-.47-1.579-1.387-1.579-2.385V2.7c0-.999.607-1.917 1.579-2.386A3.24 3.24 0 014.64.457l16.044 9.798c.822.502 1.315 1.343 1.315 2.241 0 .9-.493 1.741-1.315 2.244z"/></svg><svg viewBox="0 0 15.28 15.281" id="search" xmlns="http://www.w3.org/2000/svg"><path fill-rule="evenodd" d="M2.98 6.076a.617.617 0 01.75.485 2.583 2.583 0 00.78 1.489A3.036 3.036 0 006 8.827a.636.636 0 01.49.743.649.649 0 01-.72.515 4.21 4.21 0 01-2.14-1.13A4.164 4.164 0 012.5 6.819a.6.6 0 01.48-.743zM6.26 0a6.267 6.267 0 016.28 6.257 6.136 6.136 0 01-.57 2.6l2.34 2.036c1.7 1.746.74 3.266.29 3.717-.42.454-1.99 1.414-3.73-.292l-2.06-2.35A6.261 6.261 0 116.26 0zm5.55 13.517a1.352 1.352 0 001.88.226 1.313 1.313 0 00-.23-1.874l-2.16-1.88a6.236 6.236 0 01-1.37 1.34zm-5.55-2.312a4.948 4.948 0 10-4.97-4.948A4.963 4.963 0 006.26 11.2z"/></svg><svg viewBox="0 0 15 15" id="sort-1" xmlns="http://www.w3.org/2000/svg"><defs><style>.mcls-1{fill:#fe3e57;fill-rule:evenodd}</style></defs><path id="mgrid" class="mcls-1" d="M855 613.75h3.75V610H855v3.75zm5.625 11.25h3.75v-3.75h-3.75V625zM855 625h3.75v-3.75H855V625zm0-5.625h3.75v-3.75H855v3.75zm5.625 0h3.75v-3.75h-3.75v3.75zM866.25 610v3.75H870V610h-3.75zm-5.625 3.75h3.75V610h-3.75v3.75zm5.625 5.625H870v-3.75h-3.75v3.75zm0 5.625H870v-3.75h-3.75V625z" transform="translate(-855 -610)"/></svg><svg viewBox="0 0 20 15" id="sort-2" xmlns="http://www.w3.org/2000/svg"><defs><style>.ncls-1{fill:#8d8d8d;fill-rule:evenodd}</style></defs><path id="nlist" class="ncls-1" d="M885.007 610h4.422v4.172h-4.422V610zm5.828 0h14.159v4.172h-14.159V610zm-5.828 5.413h4.422v4.172h-4.422v-4.172zm5.828 0h14.159v4.172h-14.159v-4.172zm-5.828 5.414h4.422V625h-4.422v-4.171zm5.828 0h14.159V625h-14.159v-4.171z" transform="translate(-885 -610)"/></svg><svg viewBox="0 0 49.125 49.13" id="time" xmlns="http://www.w3.org/2000/svg"><defs><style>.ocls-1{fill:#a3bbc8;fill-rule:evenodd}</style></defs><path class="ocls-1" d="M45.406 11.58a.937.937 0 00-1.592.99 22.684 22.684 0 01-32.86 30.14.938.938 0 00-1.125 1.5 24.559 24.559 0 0035.577-32.63zm-23.03 21.94h-7.55l4.743-4.75a12.68 12.68 0 003.744-9.03 5.844 5.844 0 10-11.688 0 .938.938 0 001.875 0 3.969 3.969 0 117.938 0 10.836 10.836 0 01-3.195 7.71l-6.344 6.34a.949.949 0 00-.2 1.03.93.93 0 00.866.57h9.813a.935.935 0 10-.002-1.87zm15.039-6.44h-2.6v-1.52a.938.938 0 00-1.875 0v1.52h-5.286l5.286-8.85v4.21a.938.938 0 101.875 0v-7.62a.957.957 0 00-.456-.8.94.94 0 00-1.286.33l-7.875 13.19a.933.933 0 00-.011.94.951.951 0 00.816.48h6.938v5.5a.938.938 0 001.875 0v-5.5h2.6a.94.94 0 00-.001-1.88zm5.33-22.63a.938.938 0 10-1.875.04l.042 1.75A24.556 24.556 0 007.363 42.09a.93.93 0 00.656.27.92.92 0 00.669-.28.942.942 0 00-.013-1.33A22.679 22.679 0 0124.557 1.88a22.745 22.745 0 0115.107 5.77l-1.843.04a.935.935 0 00.022 1.87h.023l4.06-.09a.934.934 0 00.915-.96z"/></svg></svg>